HIERARCHY
ROOT Hips
{
  OFFSET 3.92544 6.39728 0
  CHANNELS 6 Xposition Yposition Zposition Zrotation Xrotation Yrotation
  JOINT BN_Spine_01
  {
    OFFSET 5.06197 -0.168311 0
    CHANNELS 6 Xposition Yposition Zposition Zrotation Xrotation Yrotation
    JOINT BN_Spine_02
    {
      OFFSET 14.8952 0 0
      CHANNELS 6 Xposition Yposition Zposition Zrotation Xrotation Yrotation
      JOINT BN_Spine_03
      {
        OFFSET 14.3786 0 0
        CHANNELS 6 Xposition Yposition Zposition Zrotation Xrotation Yrotation
        JOINT BN__Neck_01
        {
          OFFSET 15.3325 0 0
          CHANNELS 6 Xposition Yposition Zposition Zrotation Xrotation Yrotation
          JOINT BN__Neck_02
          {
            OFFSET 11.0839 0 0
            CHANNELS 6 Xposition Yposition Zposition Zrotation Xrotation Yrotation
            JOINT BN__Neck_R_01
            {
              OFFSET 3.85383 1.1973 3.491
              CHANNELS 6 Xposition Yposition Zposition Zrotation Xrotation Yrotation
              End Site
              {
                OFFSET 0 0 0
              }
            }
            JOINT BN__Neck_L_01
            {
              OFFSET 3.85383 1.1973 -3.49098
              CHANNELS 6 Xposition Yposition Zposition Zrotation Xrotation Yrotation
              End Site
              {
                OFFSET 0 0 0
              }
            }
            JOINT BN_Head_01
            {
              OFFSET 9.67523 0 0
              CHANNELS 6 Xposition Yposition Zposition Zrotation Xrotation Yrotation
              JOINT BN_Mouth_01
              {
                OFFSET 1.08197 -0.588672 0
                CHANNELS 6 Xposition Yposition Zposition Zrotation Xrotation Yrotation
                JOINT BN_Tongue_01
                {
                  OFFSET 2.17792 0.065941 0
                  CHANNELS 6 Xposition Yposition Zposition Zrotation Xrotation Yrotation
                  JOINT BN_Tongue_02
                  {
                    OFFSET 3.80658 -0.000201226 0
                    CHANNELS 6 Xposition Yposition Zposition Zrotation Xrotation Yrotation
                    End Site
                    {
                      OFFSET 0 0 0
                    }
                  }
                }
              }
            }
          }
        }
      }
    }
  }
  JOINT BN_Tail_01
  {
    OFFSET 4.67587 -0.164094 0
    CHANNELS 6 Xposition Yposition Zposition Zrotation Xrotation Yrotation
    JOINT BN_Tail_02
    {
      OFFSET 13.1147 2.52724e-005 0
      CHANNELS 6 Xposition Yposition Zposition Zrotation Xrotation Yrotation
      JOINT BN_Tail_03
      {
        OFFSET 13.4995 9.10759e-005 0
        CHANNELS 6 Xposition Yposition Zposition Zrotation Xrotation Yrotation
        JOINT BN_Tail_04
        {
          OFFSET 13.2851 0 0
          CHANNELS 6 Xposition Yposition Zposition Zrotation Xrotation Yrotation
          JOINT BN_Tail_05
          {
            OFFSET 14.6528 0.000106812 0
            CHANNELS 6 Xposition Yposition Zposition Zrotation Xrotation Yrotation
            JOINT BN_Tail_06
            {
              OFFSET 13.1048 0 0
              CHANNELS 6 Xposition Yposition Zposition Zrotation Xrotation Yrotation
              JOINT BN_Tail_07
              {
                OFFSET 11.869 0.000113964 0
                CHANNELS 6 Xposition Yposition Zposition Zrotation Xrotation Yrotation
                End Site
                {
                  OFFSET 0 0 0
                }
              }
            }
          }
        }
      }
    }
  }
}
MOTION
Frames:	7
Frame Time:	0.0333333
0 4 0 0 0 -0 4.98225 -0.165661 4.5894e-012 1.59549 5.6233 44.0493 14.6606 -1.90669e-007 -2.69926e-006 72.2591 -44.1948 -35.4608 14.1522 2.28751e-006 -2.9593e-006 59.0417 30.7501 -2.75584 15.091 1.6097e-006 1.67968e-006 -30.0159 -0.204984 2.1528 10.9093 2.00746e-006 -6.87777e-007 -81.2982 2.036 8.7774 4.20123 1.32306 2.8322 -87.4279 -9.71682 -71.533 3.84063 1.32736 -2.38877 92.0572 1.15135 101.681 9.52285 -3.44651e-006 -8.22288e-008 -33.8576 -0.652195 5.79963 1.06491 -0.579398 -3.14331e-007 0.0629917 1.0095e-005 -1.71457e-005 1.57115 0.0142652 0.0434956 5.05104 -0.37835 -0.165336 2.97567 0.132003 0.0324779 -4.4684 -0.15504 7.24964 4.60224 -0.16151 3.90322e-012 -178.964 0.16947 -25.9708 12.9082 5.96414e-008 -3.86056e-007 -1.04954 0.00125607 -3.19435 13.2869 -1.08002e-007 -3.24535e-006 1.24142 0.574287 56.3931 13.0759 3.387e-007 4.26709e-006 3.39137 2.41639 50.1877 14.4221 -5.46029e-007 -6.47111e-009 1.52934 -1.12531 47.0868 12.8984 -6.54448e-007 -2.54772e-006 -0.412681 9.26561 46.5338 11.6821 -1.52868e-006 -2.1221e-006 1.27598 0.789181 -24.5662 
0 4 0 0 0 -0 4.98225 -0.165661 4.5895e-012 1.64292 5.63981 43.9704 14.6606 -1.32942e-007 -8.88812e-007 72.0122 -44.1807 -35.5658 14.1522 -1.05235e-006 1.07928e-006 58.8975 30.6586 -2.65646 15.0911 1.79297e-006 2.46111e-006 -30.0648 -0.484201 2.26543 10.9093 2.16399e-006 2.033e-007 -81.1469 2.03433 8.73424 4.15675 1.40208 2.59329 -87.4279 -9.71684 -71.5328 3.84394 1.38143 -2.12815 92.0571 1.15134 101.681 9.52287 -1.45648e-006 4.12652e-007 -33.7719 -0.64587 5.78751 1.06491 -0.579397 -1.11793e-007 0.0629644 -1.72272e-005 -1.71163e-005 1.57118 0.0142725 0.0434612 5.12273 -0.378453 -0.165146 2.97569 0.132017 0.0324497 -4.62452 -0.157409 6.9367 4.60224 -0.16151 3.90332e-012 -178.964 0.171457 -25.8551 12.9082 1.47269e-007 -9.84488e-007 -1.04961 0.00138706 -3.52846 13.2869 -3.98523e-007 -2.96964e-006 1.23762 0.578881 56.6346 13.0759 -1.42168e-007 1.69622e-006 3.38695 2.42554 50.3243 14.4221 6.99308e-007 -5.74364e-008 1.52131 -1.13834 46.9217 12.8984 9.65978e-007 3.25098e-006 -0.462348 9.31584 46.6045 11.6821 -4.23898e-007 2.47667e-007 1.43955 0.56818 -26.3147 
0 4 0 0 0 -0 4.98225 -0.165661 4.5895e-012 1.69423 5.65762 43.8856 14.6606 -9.49397e-008 -2.41625e-006 71.7749 -44.1635 -35.652 14.1522 2.00839e-006 -3.79986e-006 58.7557 30.561 -2.55426 15.0911 2.94749e-007 2.60158e-006 -30.104 -0.762321 2.3819 10.9093 3.35689e-007 -6.84349e-007 -80.9864 2.03013 8.69114 4.10943 1.48615 2.33912 -87.428 -9.71682 -71.5328 3.84747 1.43899 -1.85062 92.0572 1.15133 101.681 9.52286 1.32546e-006 -1.41541e-006 -33.6924 -0.637891 5.77321 1.06491 -0.579399 2.26819e-007 0.0629371 -4.45498e-005 -1.70869e-005 1.5712 0.0142859 0.0434264 5.19474 -0.37856 -0.164899 2.97571 0.132024 0.032421 -4.77683 -0.15437 6.62261 4.60224 -0.16151 3.90332e-012 -178.964 0.173538 -25.7353 12.9082 1.4318e-007 -7.85042e-007 -1.04975 0.000257839 -3.86535 13.2869 -1.97016e-007 -1.64331e-006 1.23052 0.582941 56.8665 13.0759 -3.38834e-007 1.37503e-006 3.3809 2.43758 50.4605 14.4221 1.00977e-006 -2.27441e-006 1.50656 -1.16448 46.7662 12.8984 5.72286e-008 -2.45686e-006 -0.509388 9.37485 46.6715 11.6821 -9.46553e-007 2.65008e-006 1.61887 0.338608 -28.0733 
0 4 0 0 0 -0 4.98225 -0.165661 4.5895e-012 1.73998 5.6725 43.7915 14.6606 3.51742e-007 -1.56372e-006 71.5362 -44.1432 -35.7279 14.1522 3.16853e-007 -1.9631e-006 58.6145 30.4575 -2.44434 15.091 -1.38142e-006 5.93907e-007 -30.1336 -1.04017 2.49878 10.9093 -1.41668e-006 -3.75945e-007 -80.8196 2.02437 8.64373 4.05985 1.57424 2.07279 -87.4279 -9.71683 -71.5329 3.85118 1.49937 -1.55961 92.057 1.15133 101.681 9.52285 6.23997e-007 1.36122e-006 -33.6148 -0.631197 5.74721 1.06491 -0.579399 -2.30331e-007 0.0629371 -7.1873e-005 -1.70575e-005 1.57122 0.014297 0.0433922 5.26687 -0.378656 -0.164652 2.97573 0.132032 0.0323927 -4.92893 -0.154245 6.30578 4.60224 -0.16151 3.90332e-012 -178.964 0.17568 -25.6114 12.9082 4.04996e-008 -5.27035e-007 -1.0498 0.00173283 -4.20424 13.2869 -3.82484e-007 -3.087e-006 1.22627 0.585538 57.0911 13.0759 -7.9609e-007 7.23615e-007 3.37798 2.44891 50.5968 14.422 7.02833e-008 -7.68229e-007 1.49481 -1.18305 46.611 12.8984 1.29088e-006 1.03684e-006 -0.556517 9.43434 46.7383 11.6821 7.09089e-007 -4.16755e-006 1.79491 0.120135 -29.8265 
0 4 0 0 0 -0 4.98225 -0.165661 4.5895e-012 1.78772 5.69198 43.6907 14.6606 -3.4093e-007 -6.64818e-007 71.3149 -44.1138 -35.7804 14.1522 -2.78664e-006 -4.07298e-008 58.4682 30.3511 -2.32776 15.091 3.15586e-006 1.61249e-006 -30.157 -1.31609 2.61493 10.9093 2.19726e-006 -2.26877e-007 -80.6494 2.01643 8.59406 4.0084 1.66563 1.79648 -87.4279 -9.71683 -71.533 3.85503 1.56205 -1.25746 92.0572 1.15134 101.681 9.52286 -9.49217e-007 5.19369e-007 -33.5446 -0.624033 5.71919 1.06491 -0.579396 9.32315e-008 0.0629917 -0.000181156 -1.69375e-005 1.57124 0.0143032 0.0433567 5.33856 -0.378764 -0.164407 2.97575 0.132036 0.0323654 -5.0763 -0.156846 5.99433 4.60224 -0.16151 3.90332e-012 -178.964 0.177852 -25.4842 12.9082 8.3202e-008 1.36698e-007 -1.04998 -0.000166811 -4.54395 13.2869 -4.00806e-007 -3.76985e-006 1.21992 0.590707 57.3073 13.0759 -6.87713e-008 2.55356e-006 3.3723 2.45835 50.7324 14.4221 1.01325e-006 -2.25529e-006 1.48315 -1.20103 46.4609 12.8984 2.32893e-007 1.62915e-006 -0.600134 9.49485 46.8058 11.6821 -1.62324e-007 -1.58694e-006 1.97005 -0.0907897 -31.5581 
0 4 0 0 0 -0 4.98225 -0.165661 4.5895e-012 1.83297 5.70632 43.581 14.6606 -9.27489e-007 -2.57307e-006 71.0985 -44.0824 -35.8175 14.1522 9.33424e-007 -1.55512e-006 58.3205 30.2398 -2.20603 15.0911 2.60275e-006 5.18165e-006 -30.1656 -1.5917 2.72832 10.9093 2.41968e-006 1.07435e-006 -80.4695 2.00857 8.54152 3.95599 1.75873 1.51499 -87.4279 -9.71684 -71.5328 3.85895 1.62592 -0.949547 92.0572 1.15134 101.681 9.52286 -2.66094e-006 -7.73625e-007 -33.4808 -0.614582 5.68234 1.06491 -0.579403 -5.7396e-007 0.0629371 1.10194e-005 2.57654e-005 1.57127 0.0143143 0.0433213 5.41069 -0.378864 -0.16416 2.97577 0.132046 0.0323336 -5.21879 -0.155717 5.68077 4.60224 -0.16151 3.90332e-012 -178.965 0.180213 -25.3519 12.9082 4.40723e-008 -5.53814e-007 -1.05 0.00209286 -4.88553 13.2869 -2.44273e-007 -2.32186e-006 1.21492 0.591828 57.5133 13.0759 2.17451e-007 1.71289e-006 3.36644 2.46872 50.8663 14.4221 9.01909e-007 -3.46368e-007 1.47384 -1.22075 46.3172 12.8984 1.93177e-007 -1.61805e-006 -0.643278 9.55685 46.8746 11.6821 -1.31256e-006 -1.10841e-006 2.14374 -0.295512 -33.2729 
0 4 0 0 0 -0 4.98225 -0.165661 4.5895e-012 1.87772 5.72249 43.462 14.6606 -6.40215e-008 -1.54054e-006 70.8931 -44.0444 -35.8308 14.1522 -1.33572e-006 -3.42067e-006 58.1716 30.1204 -2.07508 15.091 3.4878e-007 1.85431e-006 -30.1647 -1.86359 2.84483 10.9093 2.01642e-007 2.46562e-007 -80.2834 1.99432 8.48661 3.90209 1.85449 1.22548 -87.4279 -9.71681 -71.5329 3.86298 1.69168 -0.632528 92.0571 1.15134 101.681 9.52284 3.21455e-006 7.69573e-007 -33.4212 -0.603833 5.64115 1.06491 -0.579399 -9.2647e-007 0.0629371 -1.72363e-005 -1.7119e-005 1.57129 0.0143319 0.0432871 5.48298 -0.378969 -0.163911 2.97577 0.132047 0.0323351 -5.36133 -0.155568 5.36938 4.60224 -0.16151 3.90332e-012 -178.965 0.182554 -25.2152 12.9082 1.98847e-008 -2.90015e-007 -1.05025 -4.65181e-005 -5.22705 13.2869 -2.4553e-007 -1.49276e-006 1.21098 0.595323 57.7143 13.0759 7.8437e-007 4.93509e-007 3.36094 2.47802 50.9991 14.422 2.07056e-006 6.48109e-007 1.46279 -1.23638 46.1778 12.8984 1.17622e-006 -1.48625e-006 -0.688682 9.62264 46.9461 11.6821 -3.66786e-007 8.85142e-007 2.31663 -0.490744 -34.9669 
